<svg width="58" height="56" viewBox="0 0 58 56" fill="none" xmlns="http://www.w3.org/2000/svg">
<path d="M12.7725 54.996C11.6226 54.8234 10.4586 54.6773 9.32292 54.4515C7.98853 54.1727 6.71091 53.761 5.58945 52.9908C3.68723 51.6496 3.65883 49.6842 5.63204 48.4359C6.58315 47.8251 7.69042 47.4267 8.75509 46.9088C8.69831 46.8424 8.58475 46.7096 8.44279 46.5635C6.35602 44.4388 4.46799 42.1681 2.93485 39.6582C1.50109 37.3078 0.450605 34.8113 0.109908 32.1155C-0.812813 24.9446 4.16988 18.6502 11.4665 17.309C19.1605 15.8881 26.5281 20.4827 28.1464 27.6536C28.842 30.7079 28.331 33.6692 27.0959 36.5243C26.5707 37.7327 25.9035 38.8748 25.2647 40.0433C24.9524 40.6011 24.4839 40.7472 24.0155 40.5081C23.5612 40.2691 23.476 39.8176 23.8025 39.2599C23.8735 39.1403 23.9587 39.0208 24.0155 38.888C24.6401 37.5999 25.3641 36.3517 25.8609 35.037C27.1101 31.6906 27.1243 28.3707 25.4067 25.1173C23.0644 20.6421 17.528 17.9729 12.2614 18.8095C7.02322 19.6461 3.06262 23.1652 1.95535 28.0255C1.37333 30.5751 1.785 33.0451 2.72192 35.4619C3.91436 38.556 5.85917 41.2385 8.0737 43.7616C9.90495 45.8597 11.9633 47.7454 14.2346 49.5647C15.1858 48.7414 16.1936 47.9579 17.0738 47.0814C18.6637 45.4746 20.1826 43.8147 21.7158 42.1681C22.1416 41.7033 22.6385 41.597 23.036 41.9025C23.4335 42.2079 23.4477 42.686 23.0218 43.164C22.0281 44.2928 21.0202 45.4215 20.0123 46.537C19.8845 46.6831 19.7426 46.8291 19.6148 46.9752C20.4382 47.3072 21.2615 47.5993 22.0423 47.9844C22.5107 48.2102 22.9366 48.5156 23.3057 48.8609C24.5833 50.0162 24.5549 51.5433 23.2489 52.6721C22.0707 53.6946 20.6085 54.1594 19.0896 54.4781C17.9397 54.7171 16.7473 54.8499 15.5832 55.0225C14.6605 54.996 13.7236 54.996 12.7725 54.996ZM14.4618 53.4157C15.1574 53.3626 16.2788 53.3228 17.3719 53.1634C18.9334 52.9377 20.4807 52.5924 21.8151 51.7027C22.8088 51.0254 22.823 50.3615 21.8293 49.6842C20.8498 49.007 19.7284 48.6617 18.5501 48.4359C18.3372 48.3961 18.0391 48.4758 17.8687 48.6086C16.8892 49.3788 15.9523 50.2021 14.9728 50.9856C14.3908 51.4504 14.0501 51.4504 13.4823 50.9989C12.8577 50.5208 12.233 50.0295 11.6368 49.5116C10.0753 48.1836 10.0611 48.1571 8.0879 48.9406C7.4207 49.2062 6.79609 49.5913 6.24245 50.0162C5.71721 50.4279 5.73141 50.8528 6.22826 51.291C6.58315 51.623 7.00902 51.9152 7.44909 52.1144C9.50747 53.1236 11.7646 53.3228 14.4618 53.4157Z" fill="#FF002B"/>
<path d="M58 11.6256C57.8439 12.4888 57.7445 13.3785 57.5174 14.2151C56.7934 16.8577 55.3454 19.1683 53.5851 21.3063C52.8896 22.1429 52.1514 22.9397 51.3706 23.8161C51.5694 23.8958 51.7681 23.9356 51.9242 24.0286C52.6198 24.4137 53.3864 24.7058 53.9826 25.2105C55.0615 26.1135 55.0189 27.375 53.9968 28.3311C53.1877 29.0881 52.1372 29.4864 51.0583 29.7387C47.9069 30.4691 44.7838 30.4558 41.6891 29.4466C40.8374 29.1677 40.0708 28.7693 39.4888 28.1054C38.7222 27.2289 38.7222 26.14 39.574 25.3167C39.9289 24.9714 40.3831 24.6793 40.8232 24.427C41.2775 24.1747 41.7743 24.0153 42.3279 23.7896C42.186 23.6302 42.044 23.4709 41.9021 23.3248C39.6875 21.0009 37.7711 18.5043 36.6071 15.5563C36.0534 14.1752 35.7695 12.7411 35.7127 11.2671C35.6985 10.7226 36.0109 10.3641 36.4935 10.3375C36.9904 10.3109 37.3594 10.5765 37.3878 11.0944C37.544 15.0915 39.6308 18.2919 42.257 21.2399C43.6481 22.7936 45.2239 24.2012 46.7996 25.7549C48.0914 24.5465 49.3122 23.4708 50.4479 22.3155C52.563 20.151 54.3943 17.8005 55.4732 15.0119C56.623 12.0505 56.6372 9.14234 54.7918 6.36694C51.6545 1.63946 44.3011 0.882534 40.1986 4.9062C39.503 5.58345 39.0061 6.43334 38.4099 7.20355C38.3106 7.33634 38.2538 7.48241 38.1686 7.62849C37.8705 8.10655 37.4446 8.2659 36.9904 8.05343C36.5645 7.85424 36.3941 7.41602 36.6639 6.9114C37.0046 6.26071 37.3452 5.59673 37.7995 5.02572C40.6812 1.49339 44.5283 0.0193712 49.1703 0.948932C53.7839 1.87849 56.6088 4.70701 57.7445 8.98299C57.8722 9.48761 57.9148 10.0188 58 10.5367C58 10.9218 58 11.2803 58 11.6256ZM47.0835 28.6764C47.6655 28.6233 48.4889 28.5702 49.3122 28.4772C49.6813 28.4374 50.0646 28.3842 50.4195 28.2514C51.1719 27.9726 51.9242 27.707 52.6198 27.3219C53.2161 26.9766 53.2161 26.5384 52.6056 26.2064C51.8959 25.8213 51.1293 25.5424 50.3485 25.2769C50.1498 25.2105 49.7949 25.2901 49.6103 25.4229C48.9006 25.9674 48.2334 26.565 47.5236 27.1227C46.9841 27.5476 46.6718 27.5344 46.1182 27.1227C45.7207 26.8173 45.3374 26.5118 44.9683 26.1931C43.563 24.9847 43.5204 24.9847 41.8027 25.7549C41.7885 25.7682 41.7743 25.7682 41.7459 25.7815C41.2917 26.0072 40.6528 26.1799 40.6528 26.7376C40.6528 27.3219 41.2775 27.5211 41.7601 27.7468C43.3784 28.4905 45.1103 28.61 47.0835 28.6764Z" fill="#407BA7"/>
<path d="M20.3955 30.3628C20.3813 33.51 17.67 36.0729 14.334 36.1261C10.927 36.1659 8.10206 33.6561 8.04528 30.4823C8.03108 29.9644 8.14465 29.4332 8.24402 28.9153C8.35758 28.3841 8.78345 28.1053 9.25191 28.1982C9.74876 28.2912 10.0185 28.7161 9.89072 29.2606C9.47904 31.0533 10.0043 32.5406 11.5374 33.6826C13.4113 35.077 16.1652 34.7184 17.7551 32.8859C19.2031 31.2127 18.9334 28.5966 17.1589 27.2023C15.5832 25.954 13.5674 25.8079 11.7929 26.8172C11.6226 26.9234 11.4381 27.0429 11.2393 27.0828C10.8134 27.189 10.4585 27.0562 10.2598 26.6578C10.0469 26.2329 10.2172 25.8876 10.6005 25.6486C12.2898 24.5597 14.1352 24.2542 16.0942 24.8385C18.6921 25.5955 20.4097 27.8264 20.3955 30.3628Z" fill="#FF002B"/>
<path d="M51.7823 11.1076C51.7965 13.6307 49.5677 15.7422 46.8563 15.7554C44.1734 15.7687 41.9162 13.6706 41.902 11.1475C41.8878 8.6111 44.1024 6.52623 46.828 6.51295C49.5251 6.48639 51.7681 8.55798 51.7823 11.1076ZM50.0788 11.1209C50.0788 9.4477 48.6308 8.0932 46.8422 8.0932C45.0535 8.0932 43.6055 9.4477 43.6055 11.1209C43.6055 12.7808 45.0819 14.1619 46.8422 14.1619C48.6166 14.1619 50.0788 12.7808 50.0788 11.1209Z" fill="#407BA7"/>
<path d="M40.7239 37.8792C40.5251 37.8659 40.298 37.8659 40.0709 37.8394C39.6024 37.7863 39.3611 37.4941 39.3611 37.0957C39.3611 36.6575 39.6166 36.3521 40.0993 36.3123C40.5251 36.2857 40.9652 36.2724 41.3911 36.3123C41.8737 36.3521 42.1434 36.631 42.1292 37.0825C42.1151 37.534 41.8311 37.7863 41.3627 37.8394C41.1639 37.8659 40.951 37.8659 40.7239 37.8792Z" fill="#407BA7"/>
<path d="M36.1812 37.8794C35.9824 37.8661 35.7411 37.8661 35.4998 37.813C35.0739 37.7333 34.861 37.4677 34.861 37.056C34.861 36.6577 35.0881 36.3655 35.514 36.3124C35.9824 36.2593 36.4509 36.2726 36.9193 36.2991C37.3736 36.3257 37.6291 36.6178 37.6433 37.0428C37.6575 37.4943 37.402 37.7731 36.9193 37.8263C36.678 37.8661 36.4509 37.8661 36.1812 37.8794Z" fill="#407BA7"/>
<path d="M45.1671 37.8789C44.9967 37.8656 44.7412 37.8656 44.5141 37.8257C44.0882 37.7461 43.8611 37.4672 43.8611 37.0821C43.8611 36.6837 44.0882 36.3916 44.5141 36.3384C44.9542 36.2853 45.4084 36.2853 45.8627 36.3119C46.3595 36.3384 46.7002 36.697 46.6576 37.1086C46.6151 37.5469 46.3453 37.8125 45.8627 37.8656C45.6497 37.8656 45.4368 37.8656 45.1671 37.8789Z" fill="#407BA7"/>
<path d="M49.7239 37.8922C49.4826 37.8789 49.2413 37.8789 48.9999 37.8258C48.5741 37.7461 48.3469 37.4806 48.3469 37.0822C48.3469 36.6572 48.5883 36.3651 49.0425 36.3252C49.4684 36.2854 49.9085 36.2854 50.3343 36.312C50.8454 36.3518 51.1435 36.6705 51.1293 37.1087C51.1009 37.5602 50.817 37.8125 50.3485 37.8657C50.1498 37.8922 49.9368 37.8657 49.7239 37.8657C49.7239 37.8657 49.7239 37.8789 49.7239 37.8922Z" fill="#407BA7"/>
<path d="M41.391 51.3976C41.2064 51.3976 41.0077 51.4109 40.8232 51.3976C40.3405 51.3578 40.0566 51.0922 40.0282 50.654C39.9998 50.2157 40.2837 49.9103 40.7522 49.8439C41.178 49.7908 41.6181 49.7908 42.044 49.8306C42.5408 49.8705 42.8389 50.229 42.8247 50.654C42.8106 51.0789 42.4699 51.3711 41.9588 51.3976C41.7743 51.4109 41.5755 51.3976 41.391 51.3976Z" fill="#407BA7"/>
<path d="M45.9052 51.3708C45.6781 51.3708 45.451 51.3973 45.2238 51.3708C44.7838 51.2911 44.514 51.0255 44.514 50.6006C44.514 50.1756 44.7696 49.8835 45.2096 49.8304C45.6781 49.7772 46.1465 49.7772 46.615 49.8304C47.0409 49.8702 47.2822 50.1756 47.2964 50.5607C47.3106 50.9458 47.0977 51.238 46.6718 51.3442C46.4163 51.3973 46.1465 51.3973 45.891 51.4106C45.9052 51.3973 45.9052 51.3841 45.9052 51.3708Z" fill="#407BA7"/>
<path d="M32.5186 28.0256C32.4619 28.6099 31.5107 29.6457 31.0849 29.6457C30.8152 29.6457 30.4461 29.5527 30.3041 29.3801C30.148 29.1809 30.0912 28.7692 30.2189 28.5701C30.4745 28.1584 30.8436 27.7733 31.2552 27.4811C31.4398 27.3483 31.8798 27.3749 32.1212 27.4944C32.3483 27.6007 32.4477 27.9194 32.5186 28.0256Z" fill="#407BA7"/>
<path d="M56.8786 44.293C57.5742 44.293 57.9574 44.7046 57.8723 45.2225C57.8013 45.6209 57.6877 46.0193 57.5316 46.3911C57.3754 46.7895 57.0205 46.9489 56.5805 46.8559C56.1262 46.7629 55.8849 46.4708 55.9559 46.0459C56.0268 45.5944 56.1404 45.1429 56.3391 44.7312C56.4527 44.5054 56.765 44.3726 56.8786 44.293Z" fill="#407BA7"/>
<path d="M35.2159 27.5607C34.9746 27.5607 34.7191 27.6006 34.492 27.5474C34.0661 27.4678 33.8531 27.2022 33.8531 26.7905C33.8531 26.3921 34.0945 26.1133 34.5062 26.0469C34.9036 25.9805 35.3295 25.9539 35.7412 25.9672C36.309 25.9937 36.6639 26.339 36.6355 26.7905C36.6071 27.2287 36.2806 27.5076 35.727 27.5342C35.5566 27.5474 35.3863 27.5342 35.2159 27.5342C35.2159 27.5474 35.2159 27.5607 35.2159 27.5607Z" fill="#407BA7"/>
<path d="M30.8294 32.4874C30.8294 32.6601 30.8294 32.8061 30.8294 32.9389C30.801 33.3506 30.5596 33.6029 30.148 33.6693C29.7079 33.7357 29.3246 33.5631 29.2252 33.1514C29.1117 32.6999 29.0833 32.2085 29.0975 31.7438C29.1117 31.3321 29.424 31.1196 29.8357 31.0798C30.2473 31.0532 30.5738 31.2259 30.6874 31.6243C30.7726 31.9297 30.7868 32.2218 30.8294 32.4874Z" fill="#407BA7"/>
<path d="M32.6464 37.0691C31.9934 37.0824 30.8152 36.2325 30.801 35.8076C30.7868 35.542 30.9146 35.1834 31.1133 35.0374C31.312 34.8913 31.7521 34.878 31.9792 34.9843C32.3909 35.1702 32.7884 35.4623 33.0723 35.7943C33.2427 35.9802 33.2852 36.3786 33.2001 36.6043C33.1149 36.8301 32.7742 36.9629 32.6464 37.0691Z" fill="#407BA7"/>
<path d="M50.1356 51.3709C49.44 51.3841 49.0283 51.092 49.0141 50.6007C48.9999 50.1093 49.3406 49.8305 49.9652 49.7773C50.2633 49.7508 50.5614 49.7109 50.8595 49.7109C51.399 49.7109 51.7539 50.0031 51.7823 50.4413C51.8107 50.9061 51.5125 51.2115 50.9731 51.2779C50.6892 51.331 50.3911 51.3443 50.1356 51.3709Z" fill="#407BA7"/>
<path d="M27.9761 49.897C28.189 49.897 28.3877 49.8837 28.6007 49.897C29.0265 49.9369 29.2821 50.1892 29.3246 50.5875C29.3672 51.0125 29.1543 51.3445 28.7142 51.4109C28.2316 51.4773 27.7347 51.4905 27.2663 51.4374C26.7978 51.3976 26.5281 51.0656 26.5565 50.6274C26.5849 50.1892 26.8688 49.9236 27.3656 49.897C27.5502 49.8837 27.7631 49.897 27.9761 49.897Z" fill="#407BA7"/>
<path d="M55.2744 38.4635C55.2602 39.0478 54.664 39.4727 54.1671 39.2469C53.7128 39.0478 53.2586 38.7822 52.9321 38.4502C52.7475 38.2776 52.6908 37.8261 52.8043 37.6136C52.9179 37.4011 53.4147 37.1222 53.5851 37.2019C54.1671 37.4542 54.6781 37.8393 55.1892 38.1979C55.2602 38.251 55.2602 38.4103 55.2744 38.4635Z" fill="#407BA7"/>
<path d="M36.9477 51.3978C36.7206 51.3978 36.4935 51.4111 36.2664 51.3978C35.8405 51.3579 35.585 51.1189 35.5424 50.7205C35.4998 50.2956 35.6985 49.9769 36.1528 49.8972C36.6071 49.8308 37.0897 49.8175 37.544 49.8574C38.0408 49.8972 38.3247 50.1894 38.2963 50.6807C38.2679 51.1588 37.9414 51.3978 37.4446 51.4111C37.2742 51.4243 37.1039 51.4111 36.9477 51.3978C36.9477 51.4111 36.9477 51.3978 36.9477 51.3978Z" fill="#407BA7"/>
<path d="M32.5187 49.8438C32.7033 49.857 32.9446 49.857 33.1859 49.8969C33.6118 49.9765 33.8248 50.2687 33.8248 50.6538C33.8106 51.0389 33.5976 51.3443 33.1576 51.3842C32.6891 51.424 32.2206 51.4373 31.7522 51.3974C31.2979 51.3576 31.0424 51.0787 31.0282 50.6538C31.0282 50.2156 31.2979 49.9367 31.7806 49.8703C32.0077 49.857 32.2348 49.857 32.5187 49.8438Z" fill="#407BA7"/>
<path d="M56.5236 40.1898C57.347 40.2694 57.3612 40.9201 57.6025 41.4115C57.8013 41.8098 57.858 42.195 57.4748 42.5269C57.1057 42.8589 56.4527 42.8058 56.2113 42.3676C55.9842 41.9692 55.8139 41.531 55.7145 41.0928C55.5867 40.6014 56.0268 40.1765 56.5236 40.1898Z" fill="#407BA7"/>
<path d="M55.7855 48.8214C55.7145 48.9276 55.6435 49.1534 55.4873 49.3127C55.2318 49.565 54.9195 49.7775 54.6214 49.9767C54.2097 50.2555 53.8123 50.2157 53.4574 49.8704C53.1451 49.565 53.1593 49.1268 53.5283 48.7948C53.8406 48.5159 54.1671 48.2504 54.5362 48.0379C55.0899 47.7325 55.7855 48.1176 55.7855 48.8214Z" fill="#407BA7"/>
</svg>
