<svg width="53" height="53" viewBox="0 0 53 53" fill="none" xmlns="http://www.w3.org/2000/svg">
<g filter="url(#filter0_d_133_3)">
<circle cx="26.5" cy="22.5" r="22.5" fill="#407BA7"/>
</g>
<path d="M30.1191 33.9938C28.9641 33.7372 27.8092 33.4681 26.6476 33.224C24.0854 32.6858 21.8618 31.5281 19.9037 29.901C17.8195 28.1675 16.2397 26.096 15.2839 23.624C14.9321 22.7103 14.7661 21.7591 14.5604 20.8079C14.4542 20.326 14.2949 19.8566 14.1488 19.3873C13.5979 17.5974 14.6201 15.745 16.4919 15.1505C17.1026 14.9565 17.7199 14.775 18.3372 14.5998C18.8815 14.4433 19.3594 14.6811 19.532 15.1943C19.99 16.5523 20.448 17.9103 20.8927 19.2746C21.0653 19.8003 20.8197 20.2446 20.2688 20.4199C19.8639 20.5513 19.4523 20.6639 19.0408 20.7891C18.7421 20.8767 18.7156 20.9393 18.8549 21.2084C19.7709 23.0107 21.0056 24.5878 22.499 25.9959C23.9859 27.3977 25.6519 28.5617 27.5569 29.4128C27.8623 29.5505 27.9154 29.5255 28.0149 29.2251C28.141 28.8558 28.2605 28.4804 28.3866 28.1111C28.5725 27.5604 29.0504 27.3226 29.6345 27.4978C31.055 27.9171 32.4754 28.3364 33.8959 28.762C34.5132 28.9435 34.7522 29.3878 34.5597 29.9635C34.3871 30.4892 34.2211 31.0212 34.0353 31.5469C33.5507 32.8924 32.5684 33.6997 31.0815 33.9562C31.0417 33.9625 31.0085 33.9813 30.9687 34C30.6833 33.9938 30.4045 33.9938 30.1191 33.9938ZM28.6787 29.6256C28.3003 30.2139 27.8689 30.339 27.2383 30.0449C23.2225 28.1549 20.209 25.32 18.1978 21.5338C17.8726 20.9205 17.9788 20.5701 18.5828 20.1633C18.0916 18.6864 17.5938 17.2032 17.1026 15.72C15.5759 15.9828 14.494 17.441 14.7993 18.8553C14.9321 19.4874 15.1511 20.107 15.3171 20.7328C15.5494 21.6152 15.6954 22.5289 16.014 23.38C17.0628 26.1836 18.9678 28.4115 21.4768 30.1826C23.0566 31.2965 24.8023 32.0976 26.7339 32.5106C27.7892 32.7359 28.838 32.98 29.8934 33.2115C30.3647 33.3179 30.8293 33.2991 31.2939 33.1802C32.356 32.9174 33.2852 31.9661 33.3914 31.0086C31.8249 30.5581 30.2585 30.095 28.6787 29.6256ZM17.8062 15.4947C18.3107 16.9967 18.8018 18.4736 19.2997 19.9693C19.5386 19.9004 19.7577 19.8316 19.9834 19.7753C20.1958 19.7252 20.2356 19.6063 20.1758 19.4248C20.0431 19.0368 19.917 18.6551 19.7842 18.2671C19.4789 17.3471 19.1669 16.4209 18.8616 15.501C18.7753 15.2381 18.7355 15.2193 18.4501 15.3007C18.2376 15.357 18.0385 15.4196 17.8062 15.4947ZM33.637 30.3641C33.71 30.1388 33.7764 29.9385 33.8494 29.7382C33.9158 29.563 33.8428 29.4754 33.6702 29.4253C33.3981 29.3502 33.1326 29.2689 32.8671 29.1875C31.732 28.8496 30.597 28.5179 29.4619 28.18C29.3225 28.1362 29.1898 28.1049 29.13 28.2676C29.0438 28.4929 28.9774 28.7182 28.8977 28.956C30.4841 29.4253 32.044 29.8884 33.637 30.3641Z" fill="#FDFDFF"/>
<path d="M30.1058 10C32.1038 10 34.0951 10 36.093 10C37.2612 10 37.9847 10.6821 37.9914 11.7773C37.9914 13.0728 37.9914 14.3682 37.9914 15.6636C37.9914 15.7763 37.9914 15.9202 37.9184 15.9953C37.8387 16.0767 37.6728 16.1455 37.5599 16.133C37.4604 16.1205 37.3475 16.0078 37.2811 15.9077C37.2347 15.8389 37.2479 15.7262 37.2479 15.6323C37.2479 14.3494 37.2479 13.0728 37.2479 11.7898C37.2479 11.0639 36.8563 10.7009 36.0864 10.7009C32.0971 10.7009 28.1012 10.7009 24.112 10.7009C23.342 10.7009 22.9571 11.0639 22.9571 11.7961C22.9571 14.7625 22.9571 17.7288 22.9571 20.6952C22.9571 21.4149 23.342 21.7716 24.1054 21.7716C25.4528 21.7716 26.8069 21.7716 28.1544 21.7716C28.234 21.7716 28.3203 21.7653 28.3999 21.7778C28.6323 21.8029 28.7849 21.9468 28.7783 22.1408C28.7717 22.3348 28.6123 22.4725 28.38 22.4788C27.4972 22.485 26.6078 22.4788 25.7183 22.4788C25.1541 22.4788 24.5899 22.485 24.0257 22.4788C22.9504 22.4725 22.207 21.7904 22.207 20.7765C22.2004 17.7538 22.2004 14.7312 22.207 11.7147C22.207 10.6947 22.9571 10.0063 24.0456 10C26.0635 10 28.0813 10 30.1058 10Z" fill="#FDFDFF"/>
<path d="M31.2608 18.3861C31.3869 18.3861 31.4798 18.3861 31.5794 18.3861C32.0772 18.3987 32.4423 18.7303 32.4622 19.1872C32.4821 19.7066 32.1502 20.1009 31.6325 20.1071C30.6169 20.1259 29.5947 20.1259 28.5792 20.1071C28.0614 20.1009 27.7295 19.7129 27.7428 19.1934C27.7561 18.7303 28.1145 18.3924 28.6123 18.3861C28.7119 18.3861 28.8115 18.3861 28.9243 18.3861C28.9243 17.7603 28.9243 17.147 28.9243 16.54C28.2606 16.4399 27.9685 16.1457 27.9884 15.595C28.0017 15.1444 28.3601 14.794 28.838 14.7877C29.2828 14.7752 29.7341 14.7752 30.1788 14.7877C30.8891 14.8127 31.2608 15.1882 31.2608 15.8579C31.2608 16.6088 31.2608 17.3535 31.2608 18.1045C31.2608 18.1921 31.2608 18.2735 31.2608 18.3861ZM30.5107 17.1721C30.5107 16.7403 30.5107 16.3147 30.5107 15.8829C30.5107 15.5575 30.4443 15.4949 30.0925 15.4886C29.754 15.4824 29.4155 15.4824 29.077 15.4886C28.9442 15.4949 28.7451 15.4135 28.7385 15.6451C28.7318 15.9017 28.9509 15.789 29.0836 15.814C29.1102 15.8203 29.1301 15.814 29.1566 15.814C29.4819 15.8328 29.681 16.0143 29.681 16.321C29.6877 17.0719 29.6877 17.8167 29.681 18.5676C29.681 18.8743 29.4819 19.062 29.1566 19.0808C29.0172 19.0871 28.8779 19.0808 28.7318 19.0871C28.6057 19.0871 28.4663 19.0683 28.473 19.2498C28.4796 19.4313 28.619 19.4125 28.7385 19.4125C29.3624 19.4125 29.9797 19.4125 30.6036 19.4125C30.9023 19.4125 31.201 19.425 31.4997 19.4062C31.5727 19.4 31.6856 19.3124 31.6989 19.2435C31.7321 19.1058 31.6126 19.0871 31.4931 19.0871C31.3603 19.0871 31.2276 19.0933 31.0948 19.0871C30.7165 19.0745 30.5107 18.8868 30.5107 18.5301C30.5107 18.0795 30.5107 17.6289 30.5107 17.1721Z" fill="#FDFDFF"/>
<path d="M31.2807 13.3482C31.2807 13.9678 30.7231 14.4934 30.0859 14.4872C29.4288 14.4809 28.8911 13.9552 28.8978 13.3419C28.9044 12.7224 29.4553 12.2155 30.1125 12.2217C30.763 12.2343 31.2807 12.7349 31.2807 13.3482ZM30.0925 13.78C30.3315 13.78 30.5373 13.5735 30.5306 13.3357C30.524 13.1104 30.3182 12.9227 30.0859 12.9289C29.8536 12.9352 29.6412 13.1292 29.6412 13.3482C29.6412 13.5735 29.8602 13.7863 30.0925 13.78Z" fill="#FDFDFF"/>
<path d="M33.5043 22.4789C33.3781 22.4789 33.2919 22.4789 33.1989 22.4789C32.2365 22.4789 31.2806 22.4789 30.3182 22.4789C30.2385 22.4789 30.1522 22.4851 30.0726 22.4664C29.8867 22.4351 29.7805 22.3224 29.7739 22.1472C29.7673 21.972 29.8602 21.8468 30.0394 21.803C30.1257 21.7842 30.2186 21.778 30.3115 21.778C31.3072 21.778 32.2962 21.778 33.2919 21.778C33.949 21.778 34.2543 22.0596 34.2543 22.6729C34.2543 23.4864 34.2543 24.2937 34.2543 25.1073C34.2543 25.1886 34.2543 25.2763 34.2543 25.4327C34.6127 25.3201 34.938 25.2575 35.2234 25.1198C36.4713 24.5378 37.1815 23.5866 37.228 22.2723C37.2744 20.7579 37.2413 19.2434 37.2479 17.7289C37.2479 17.6538 37.2479 17.5725 37.2479 17.4974C37.2612 17.2471 37.4072 17.0906 37.6329 17.0969C37.8519 17.1031 37.9913 17.2471 37.9913 17.4911C37.9913 19.1245 38.0179 20.7516 37.978 22.385C37.9316 24.1561 36.4182 25.7519 34.5663 26.0648C33.9291 26.1712 33.5175 25.8458 33.5175 25.2325C33.5175 24.4126 33.5175 23.5928 33.5175 22.773C33.5043 22.6916 33.5043 22.6103 33.5043 22.4789Z" fill="#FDFDFF"/>
<defs>
<filter id="filter0_d_133_3" x="0" y="0" width="53" height="53" filterUnits="userSpaceOnUse" color-interpolation-filters="sRGB">
<feFlood flood-opacity="0" result="BackgroundImageFix"/>
<feColorMatrix in="SourceAlpha" type="matrix" values="0 0 0 0 0 0 0 0 0 0 0 0 0 0 0 0 0 0 127 0" result="hardAlpha"/>
<feOffset dy="4"/>
<feGaussianBlur stdDeviation="2"/>
<feComposite in2="hardAlpha" operator="out"/>
<feColorMatrix type="matrix" values="0 0 0 0 0 0 0 0 0 0 0 0 0 0 0 0 0 0 0.25 0"/>
<feBlend mode="normal" in2="BackgroundImageFix" result="effect1_dropShadow_133_3"/>
<feBlend mode="normal" in="SourceGraphic" in2="effect1_dropShadow_133_3" result="shape"/>
</filter>
</defs>
</svg>
