<svg width="80" height="80" viewBox="0 0 80 80" fill="none" xmlns="http://www.w3.org/2000/svg">
<path d="M14.4549 80C13.7822 79.8122 13.0885 79.6662 12.4158 79.4367C7.95927 77.8719 5.35262 73.4697 6.13041 68.8589C6.88718 64.3733 10.8813 61.0143 15.527 60.9517C17.0826 60.9308 18.6592 60.9517 20.1097 60.9517C20.0256 60.0128 19.7733 59.1366 19.8784 58.2812C20.1517 56.0279 21.9806 54.4423 24.2929 54.4006C25.5542 54.3797 26.7945 54.4006 28.1188 54.4006C28.1609 53.566 28.1819 52.7524 28.266 51.9804C28.5392 49.5603 29.7164 47.6408 31.7555 46.3056C33.8156 44.9703 34.7616 43.1552 34.7406 40.735C34.7195 34.1422 34.7406 27.5702 34.7406 20.9774C34.7406 20.6644 34.7406 20.3515 34.7406 19.9968C32.4282 20.2263 30.4102 20.9565 29.1489 22.8551C27.2359 25.7134 24.5872 27.1529 21.2658 27.7162C18.9955 28.0918 16.7673 28.6551 14.3708 29.1767C14.539 29.4896 14.6861 29.74 14.8333 29.9904C18.1336 35.3314 21.413 40.6933 24.7344 46.0343C25.2179 46.8271 25.2599 47.4531 24.7764 48.2459C19.3319 57.384 5.85713 57.4258 0.370544 48.3085C-0.112948 47.4948 -0.13397 46.848 0.370544 46.0135C3.50274 40.9854 6.59288 35.9573 9.68303 30.9084C9.83018 30.6789 9.95631 30.4285 10.1665 30.0529C9.03137 30.2824 8.02234 30.4911 7.03433 30.6997C4.70096 31.2004 2.53575 29.9486 2.03124 27.7997C1.5057 25.5256 2.85107 23.4392 5.24751 22.8968C8.46379 22.1666 11.7011 21.4989 14.9174 20.8105C16.9144 20.3932 18.449 19.3083 19.5631 17.6183C20.0676 16.8464 20.5511 16.0953 21.0556 15.3234C22.5481 13.0493 24.6293 11.6514 27.32 11.0881C28.8546 10.7751 30.3891 10.4413 31.9237 10.1284C32.4072 10.0241 32.7856 9.85715 33.0168 9.37729C33.206 8.98089 33.4793 8.58448 33.8366 8.33412C34.6565 7.72908 34.7826 6.95713 34.7406 6.01828C34.6985 5.24633 34.7195 4.43266 34.9087 3.70244C35.4763 1.32401 37.8097 -0.240749 40.2482 0.0304757C42.6656 0.280837 44.5576 2.242 44.6837 4.64129C44.7257 5.51756 44.6837 6.39382 44.6837 7.39527C46.4285 7.01973 48.0681 6.68591 49.6868 6.33123C51.1793 5.99742 52.6929 5.87224 54.2064 6.24778C55.0052 6.43555 55.4046 6.95713 55.2785 7.62476C55.1313 8.33412 54.5427 8.70966 53.7229 8.52189C51.9571 8.12549 50.2964 8.62621 48.5937 8.96002C47.9 9.10607 47.2273 9.27298 46.4495 9.43988C47.4795 11.0881 47.7949 12.8198 47.6267 14.6557C48.9721 14.6557 50.2544 14.5097 51.4946 14.6975C52.5457 14.8644 53.6388 15.2608 54.5638 15.8032C56.6239 17.0342 58.726 17.3054 61.0384 16.7838C65.9574 15.678 70.9184 14.6557 75.8585 13.5917C76.1528 13.5291 76.4681 13.4457 76.7414 13.3205C77.4561 12.9449 77.7504 12.1313 77.5191 11.3802C77.2879 10.6082 76.5522 10.1284 75.6693 10.2953C73.7353 10.65 71.8223 11.0881 69.9094 11.4845C68.4169 11.7974 66.9454 12.1521 65.4529 12.4234C62.9723 12.8823 60.66 12.4234 58.5368 11.0672C57.8221 10.6291 57.6119 9.9406 57.9692 9.35643C58.3266 8.75139 59.0203 8.62621 59.756 9.06434C61.5849 10.2118 63.5399 10.4831 65.642 10.0032C68.7322 9.3147 71.8434 8.66794 74.9335 8.00031C77.2669 7.52045 79.4321 8.81398 79.8946 10.9629C80.3991 13.2162 79.0537 15.2399 76.6993 15.8032C76.0266 15.9493 75.375 16.0953 74.7023 16.2414C72.7263 16.6586 70.7713 17.0759 68.6691 17.5349C68.8583 17.8478 68.9845 18.0982 69.1526 18.3486C72.453 23.7105 75.7533 29.0932 79.0957 34.4551C79.6003 35.2688 79.6003 35.9156 79.1168 36.7501C73.6302 45.8883 60.0714 45.8466 54.6689 36.6458C54.2274 35.8947 54.2274 35.3105 54.6899 34.5595C57.8641 29.4688 60.9963 24.3572 64.1285 19.2457C64.2757 18.9953 64.4228 18.7658 64.612 18.4112C63.1825 18.7032 61.8582 18.9953 60.5338 19.2457C58.2635 19.663 56.0563 19.3917 54.1013 18.1399C51.9361 16.7629 49.6658 16.5543 47.2483 17.2219C46.8279 17.3471 44.7257 19.8716 44.7257 20.3097C44.7257 27.2781 44.7047 34.2674 44.7257 41.2358C44.7257 43.176 45.5035 44.8243 47.1642 45.8883C50.0442 47.7451 51.4105 50.3322 51.2634 53.7121C51.2634 53.8998 51.2634 54.0668 51.2634 54.3797C52.1043 54.3797 52.9031 54.3797 53.7019 54.3797C54.3535 54.3797 55.0262 54.338 55.6569 54.4214C58.5788 54.8178 60.2816 57.5927 59.3356 60.3675C59.2726 60.5344 59.2305 60.7013 59.1674 60.9308C62.5309 60.9308 65.8312 60.9308 69.1316 60.9308C69.531 60.9308 69.9304 60.91 70.3088 60.9726C72.2217 61.2855 73.5671 62.9337 73.441 64.7697C73.3149 66.6683 71.8013 68.1496 69.8253 68.2122C68.9634 68.2539 68.1015 68.2122 67.2187 68.2122C67.2187 69.7352 67.2187 71.1539 67.2187 72.6561C67.9544 72.6561 68.6691 72.6561 69.3628 72.6561C71.5701 72.6769 73.0836 73.8661 73.3989 75.8273C73.6512 77.4338 72.6212 79.395 70.5821 79.8748C70.54 79.8957 70.498 79.9374 70.4559 79.9583C51.8099 80 33.1219 80 14.4549 80ZM64.8012 68.2956C64.57 68.2748 64.3808 68.2748 64.2126 68.2748C48.0892 68.2748 31.9447 68.2748 15.8213 68.2748C15.527 68.2748 15.2327 68.2956 14.9594 68.3582C13.9294 68.6503 13.2567 69.6309 13.3618 70.674C13.4669 71.7589 14.3077 72.6352 15.4219 72.6561C16.8934 72.6978 18.3649 72.6561 19.8364 72.6978C20.6352 72.7187 21.1187 73.1985 21.1187 73.887C21.1187 74.5964 20.6562 75.0345 19.8154 75.0345C18.2598 75.0554 16.7252 75.0762 15.1696 75.0136C12.5209 74.8676 10.5449 72.2597 11.0704 69.6726C11.5329 67.3359 13.3618 65.9172 15.9474 65.9172C33.5844 65.9172 51.2003 65.9172 68.8373 65.9172C69.0896 65.9172 69.3628 65.9172 69.6151 65.9172C70.498 65.8755 71.0866 65.3539 71.0866 64.6237C71.0866 63.8934 70.498 63.351 69.6361 63.3093C69.4469 63.3093 69.2787 63.3093 69.0896 63.3093C51.4526 63.3093 33.8366 63.3093 16.1997 63.3093C15.8843 63.3093 15.569 63.3093 15.2537 63.3301C11.0494 63.5388 7.91723 67.2107 8.42175 71.3417C8.88422 75.0345 11.9113 77.6633 15.7792 77.6633C33.6474 77.6633 51.5157 77.6633 69.3628 77.6633C69.5731 77.6633 69.7833 77.6842 69.9935 77.6424C70.6662 77.4755 71.0656 77.0583 71.0656 76.3698C71.0656 75.7439 70.7292 75.264 70.0776 75.118C69.7412 75.0345 69.4049 75.0345 69.0685 75.0345C54.795 75.0345 40.5215 75.0345 26.2479 75.0345C25.9536 75.0345 25.6803 75.0345 25.386 75.0136C24.7133 74.9719 24.3139 74.5755 24.2929 73.9287C24.2509 73.2611 24.6293 72.8438 25.2809 72.7395C25.5962 72.6769 25.9116 72.6978 26.2269 72.6978C38.7346 72.6978 51.2634 72.6978 63.7711 72.6978C64.1075 72.6978 64.4228 72.6978 64.7802 72.6978C64.8012 71.1956 64.8012 69.7769 64.8012 68.2956ZM48.867 54.3588C49.1192 51.8135 48.5516 49.6437 46.3234 48.2041C43.6116 46.4307 42.3503 43.9897 42.3503 40.7768C42.3713 34.5595 42.3503 28.3421 42.3503 22.1248C42.3503 21.8328 42.3503 21.5198 42.3503 21.1234C40.5425 21.7284 38.8397 21.6659 37.0739 21.1443C37.0739 21.5407 37.0739 21.8328 37.0739 22.104C37.0739 28.2378 37.0319 34.3925 37.095 40.5264C37.116 43.8437 35.8757 46.4099 33.0588 48.225C30.8516 49.6646 30.3471 51.8344 30.5783 54.3171C36.6956 54.3588 42.7707 54.3588 48.867 54.3588ZM76.2579 34.4134C73.1257 29.3227 70.0565 24.3364 66.9033 19.2457C63.7501 24.3781 60.681 29.3645 57.5698 34.4134C63.8762 34.4134 69.9935 34.4134 76.2579 34.4134ZM39.7857 60.9517C44.2633 60.9517 48.7618 60.9517 53.2394 60.9517C53.8911 60.9517 54.5427 60.9725 55.2154 60.9308C56.3296 60.8891 57.1704 60.0754 57.2545 59.0322C57.3596 57.9474 56.6239 56.9876 55.5097 56.779C55.1944 56.7164 54.8791 56.7373 54.5638 56.7373C44.6837 56.7373 34.7826 56.7373 24.9025 56.7373C24.6503 56.7373 24.377 56.7164 24.1247 56.7581C23.2839 56.8625 22.6532 57.3006 22.3379 58.0934C21.7493 59.533 22.8214 60.9517 24.5242 60.9517C29.6113 60.9517 34.6985 60.9517 39.7857 60.9517ZM21.8755 45.93C18.7222 40.8185 15.6531 35.8321 12.5419 30.7623C9.38873 35.8738 6.31961 40.8602 3.20844 45.93C9.49384 45.93 15.6111 45.93 21.8755 45.93ZM31.6925 12.5903C30.242 12.9032 28.7495 13.1953 27.299 13.55C25.5752 13.9672 24.2088 14.9478 23.2208 16.4083C22.6532 17.2219 22.1277 18.0565 21.5812 18.891C20.0886 21.2069 17.9865 22.6047 15.2747 23.168C12.1425 23.8148 9.03137 24.5033 5.89918 25.1709C5.18445 25.317 4.61687 25.6299 4.36461 26.3393C3.92316 27.6745 5.07934 28.7386 6.65595 28.4047C11.7852 27.3198 16.8934 26.2141 22.0226 25.1292C24.0617 24.6911 25.7014 23.6687 26.8575 21.9371C27.8876 20.3932 29.254 19.2666 30.9567 18.5363C31.5663 18.2651 32.218 18.0982 32.8486 17.8896C32.5333 17.0342 32.1549 16.2205 31.9657 15.386C31.7765 14.4888 31.7765 13.5708 31.6925 12.5903ZM39.7226 8.10462C36.6115 8.10462 34.1309 10.5665 34.1309 13.6543C34.1309 16.7421 36.6535 19.2457 39.7857 19.2457C42.8758 19.2248 45.3564 16.7212 45.3354 13.6543C45.3143 10.5665 42.8338 8.10462 39.7226 8.10462ZM3.25048 48.3502C5.87815 51.4171 9.07341 52.8775 12.9834 52.7941C16.3889 52.7315 20.6562 50.4991 21.6442 48.3502C15.548 48.3502 9.49384 48.3502 3.25048 48.3502ZM76.0476 36.8753C69.9304 36.8753 63.8762 36.8753 57.759 36.8753C62.3207 42.7796 71.7172 42.6545 76.0476 36.8753ZM42.3083 6.14346C42.4764 4.8082 42.4134 3.61899 41.1941 2.82618C40.2482 2.20027 39.2602 2.20027 38.3142 2.78445C37.0529 3.57726 36.9899 4.78734 37.158 6.16432C38.8818 5.62187 40.5635 5.6636 42.3083 6.14346Z" fill="#00043A"/>
</svg>
