<svg width="80" height="80" viewBox="0 0 80 80" fill="none" xmlns="http://www.w3.org/2000/svg">
<path d="M0.0208656 23.6067C0.271257 22.8005 0.438184 21.9481 0.792905 21.1879C2.21179 18.1241 4.54877 16.5806 7.6578 16.5576C13.542 16.5345 19.4262 16.5576 25.3104 16.5576C25.6234 16.5576 25.9155 16.5576 26.3119 16.5576C26.3119 14.4613 26.3119 12.4571 26.2911 10.4529C26.2911 10.2686 26.0824 10.0152 25.9155 9.92309C24.4549 9.0477 23.7037 7.71159 23.8498 5.91474C23.9958 4.02575 25.0183 2.85089 26.6458 2.29802C35.493 -0.742794 44.3401 -0.765831 53.2081 2.22891C54.8983 2.80482 56.0042 3.91057 56.1711 5.89171C56.338 7.73463 55.5451 9.09378 54.0636 9.96916C53.9176 10.0613 53.7298 10.2917 53.7298 10.4529C53.7089 12.4571 53.7089 14.4613 53.7089 16.5806C54.0845 16.5806 54.3766 16.5806 54.6896 16.5806C60.4695 16.5806 66.2494 16.5806 72.0292 16.5806C76.8493 16.5806 80 20.0361 80 25.3575C80 31.7617 79.9791 38.1658 80 44.5699C80 46.8275 79.3532 48.7165 77.8299 50.2599C77.6004 50.4903 77.517 50.951 77.517 51.3196C77.4961 58.3688 77.4961 65.3949 77.4961 72.444C77.4961 77.2126 74.9713 80 70.6729 80C50.12 80 29.5462 80 8.99322 80C5.6338 80 3.12989 77.6964 2.58738 74.1257C2.52478 73.6419 2.52478 73.1582 2.52478 72.6744C2.52478 65.5792 2.52478 58.4839 2.52478 51.3887C2.52478 50.8358 2.42045 50.4442 2.00313 50.0526C0.876369 49.016 0.375587 47.5647 0 46.0443C0.0208659 38.5574 0.0208656 31.0936 0.0208656 23.6067ZM12.5613 52.195C12.7282 51.7573 12.8117 51.4578 12.9369 51.1814C13.6672 49.3845 15.2739 48.3018 17.0683 48.394C18.8211 48.4861 20.3652 49.7071 20.8868 51.5269C21.0746 52.195 21.1372 52.9322 21.1163 53.6463C21.1163 54.3143 21.2833 54.5677 21.9092 54.706C31.4867 56.8023 41.1059 57.1709 50.8086 55.973C51.7684 55.8578 52.3526 56.2494 52.4361 57.0787C52.5196 57.862 52.0605 58.4148 51.1215 58.53C49.494 58.7143 47.8665 58.8756 46.218 59.0138C39.228 59.5436 32.2796 59.1981 25.373 58.0002C23.9958 57.7698 22.6187 57.4934 21.1998 57.2169C21.1581 57.4473 21.1372 57.6086 21.1163 57.7698C20.8659 60.1426 19.1341 61.9164 16.964 62.0085C14.8983 62.1007 12.9995 60.442 12.6448 58.1154C12.4987 57.24 12.5404 56.3416 12.5404 55.4662C12.5404 54.9594 12.4152 54.729 11.9562 54.5447C10.0365 53.8536 8.11685 53.1164 6.19718 52.3793C5.77986 52.218 5.36254 52.0337 4.86176 51.8264C4.86176 52.2411 4.86176 52.4945 4.86176 52.7479C4.86176 59.4054 4.86176 66.086 4.86176 72.7435C4.86176 75.6691 6.44757 77.3969 9.09755 77.3969C29.6922 77.3969 50.266 77.3969 70.8607 77.3969C73.5733 77.3969 75.1382 75.6692 75.1382 72.6974C75.1382 66.063 75.1382 59.4284 75.1382 52.7939C75.1382 52.5175 75.1382 52.2411 75.1382 51.9646C75.0339 51.9416 74.9713 51.9186 74.9296 51.9186C72.5717 52.817 70.2139 53.7154 67.8769 54.6599C67.71 54.729 67.5222 55.0515 67.5013 55.2588C67.4596 55.973 67.5013 56.6871 67.4804 57.4012C67.3761 59.8661 65.7277 61.7551 63.4742 61.9855C61.4502 62.1928 59.4888 60.5803 58.988 58.2997C58.9045 57.9541 58.8837 57.5855 58.8211 57.1939C57.9864 57.3552 57.2353 57.5394 56.4632 57.6546C55.8164 57.7468 55.3365 57.4243 55.1695 56.6871C55.0026 55.996 55.3365 55.374 55.9833 55.1667C56.4632 55.0285 56.9431 54.9363 57.4231 54.8211C58.8211 54.5217 58.8211 54.5217 58.8837 52.9322C58.9463 50.7437 60.3652 48.8777 62.264 48.4631C64.2462 48.0254 66.2076 49.1081 67.0423 51.1123C67.1674 51.4118 67.2718 51.7343 67.4387 52.172C70.0887 51.0662 72.7387 50.0526 75.326 48.8777C76.8284 48.2097 77.6004 46.8045 77.6004 44.9846C77.6213 38.2119 77.6213 31.4161 77.6004 24.6434C77.6004 23.2382 77.1205 22.0172 76.265 20.9806C75.1591 19.6445 73.7402 19.1377 72.1335 19.1377C50.6834 19.1377 29.2332 19.1377 7.78299 19.1377C7.5952 19.1377 7.42827 19.1377 7.24048 19.1377C4.52791 19.2989 2.35785 21.6256 2.33698 24.5743C2.29525 31.4161 2.31612 38.2579 2.33698 45.0998C2.33698 46.7814 3.06729 48.1636 4.48618 48.8086C7.15702 50.0065 9.84872 51.0662 12.5613 52.195ZM51.3719 16.5115C51.3719 14.5995 51.3511 12.7796 51.3928 10.9367C51.4137 10.3147 51.2467 10.0383 50.6834 9.85398C47.783 8.90948 44.82 8.33357 41.7945 8.17232C37.4961 7.94195 33.2812 8.5409 29.1706 9.96916C28.9619 10.0383 28.6698 10.2917 28.6698 10.476C28.6281 12.4801 28.6489 14.4843 28.6489 16.5346C36.2441 16.5115 43.735 16.5115 51.3719 16.5115ZM40.2087 5.52312C44.6322 5.63831 48.3672 6.3294 51.9979 7.61944C52.8743 7.91892 53.5629 7.5273 53.7924 6.67495C54.001 5.84563 53.6255 5.15454 52.7908 4.83203C52.6656 4.78596 52.5404 4.73988 52.4152 4.69381C45.6129 2.36713 38.7272 1.97551 31.758 3.51895C30.2139 3.8645 28.6907 4.3713 27.1675 4.85507C26.3954 5.10847 26.0407 5.8226 26.1867 6.55976C26.3328 7.29693 26.9379 7.82677 27.6056 7.73463C27.8769 7.68855 28.1481 7.57337 28.4403 7.48122C32.4674 6.09904 36.5989 5.47705 40.2087 5.52312ZM18.7793 55.1667C18.7793 54.4526 18.8002 53.7384 18.7793 53.0243C18.7376 51.8725 17.9656 51.0201 16.9431 50.9741C15.9207 50.928 15.0026 51.6652 14.94 52.7939C14.8565 54.3604 14.8565 55.9499 14.94 57.5164C15.0026 58.6452 15.9416 59.4515 16.9223 59.4054C17.9656 59.3593 18.7585 58.4839 18.8002 57.3091C18.8002 56.618 18.7793 55.8808 18.7793 55.1667ZM61.2207 55.1437C61.2207 55.8578 61.1998 56.5719 61.2207 57.2861C61.2624 58.4839 62.0344 59.3593 63.0777 59.4284C64.0584 59.4745 65.0183 58.6913 65.0809 57.5625C65.1643 55.996 65.1643 54.4065 65.0809 52.84C65.0183 51.6652 64.0793 50.9049 63.0151 50.9971C61.9927 51.0662 61.2624 51.9186 61.2207 53.0934C61.1998 53.7615 61.2207 54.4526 61.2207 55.1437Z" fill="#00043A"/>
</svg>
