<svg width="80" height="80" viewBox="0 0 80 80" fill="none" xmlns="http://www.w3.org/2000/svg">
<path d="M0.0417201 45.4579C0.396347 43.976 0.792693 42.4941 1.12646 41.0123C2.46152 35.0222 3.75487 29.0321 5.06907 23.042C5.44456 21.3514 6.71704 20.1826 8.32329 20.0157C9.26201 19.9113 9.92954 20.3287 10.013 21.101C10.0964 21.8315 9.61664 22.3533 8.67792 22.4993C7.90608 22.6037 7.61404 23.1046 7.44716 23.7934C6.17467 29.6165 4.90219 35.4187 3.60885 41.2418C3.5254 41.6175 3.46282 41.9932 3.35852 42.4524C27.786 42.4524 52.1927 42.4524 76.6411 42.4524C76.1196 40.0522 75.598 37.652 75.0765 35.2726C74.263 31.5575 73.4286 27.8633 72.6359 24.1482C72.4273 23.1881 72.1144 22.5202 70.967 22.4367C70.2995 22.395 69.9449 21.8315 69.9866 21.1427C70.0283 20.4957 70.5498 20.0365 71.2382 19.9948C72.9488 19.9113 74.5342 21.2053 74.9514 23.0629C75.6398 26.1936 76.3281 29.3034 76.9957 32.4341C77.9344 36.7336 78.894 41.0123 79.8327 45.3118C79.937 45.7709 79.9579 46.2301 79.9579 46.7101C79.9579 56.2066 79.9161 65.724 79.9996 75.2205C80.0204 77.558 79.2695 79.2069 76.9957 80C52.3178 80 27.64 80 2.96217 80C1.48109 79.4991 0.500649 78.5181 0 77.0363C0.0417208 66.4962 0.0417201 55.977 0.0417201 45.4579ZM2.56583 47.6076C3.14992 47.5659 3.65057 47.5033 4.17208 47.5033C22.6127 47.5033 41.0324 47.5033 59.473 47.5033C59.7024 47.5033 59.9527 47.4824 60.1822 47.5241C60.8497 47.6494 61.267 48.0668 61.267 48.7555C61.267 49.4443 60.8706 49.8617 60.1822 49.987C59.911 50.0287 59.619 50.0078 59.3269 50.0078C40.9907 50.0078 22.6752 50.0078 4.33896 50.0078C2.89959 50.0078 2.54497 50.3626 2.54497 51.8028C2.54497 59.713 2.54497 67.6441 2.54497 75.5544C2.54497 77.2032 2.85787 77.5163 4.50584 77.5163C28.2032 77.5163 51.8798 77.5163 75.5772 77.5163C75.7649 77.5163 75.9318 77.5163 76.1196 77.5163C77.0374 77.4954 77.5172 77.0363 77.5172 76.1179C77.5172 67.8946 77.5172 59.6504 77.5172 51.4271C77.5172 50.5087 77.0374 50.0496 76.1196 50.0287C75.0348 50.0078 73.9292 50.0287 72.8445 50.0287C71.864 50.0287 71.2799 49.5487 71.3008 48.7764C71.3008 48.0042 71.864 47.545 72.8653 47.5241C74.409 47.5241 75.9527 47.5241 77.4963 47.5241C77.6841 45.5831 77.4755 44.9987 75.1808 44.9987C51.692 45.0404 28.2241 45.0196 4.73531 45.0196C2.75357 45.0196 2.50325 45.2909 2.54497 47.2945C2.54497 47.378 2.56583 47.4615 2.56583 47.6076Z" fill="#00043A"/>
<path d="M15.0403 17.5528C15.0403 18.5964 15.0403 19.5774 15.0403 20.5792C15.0403 26.444 15.0403 32.288 15.0403 38.1529C15.0403 38.4033 15.0612 38.6747 15.0195 38.9251C14.8943 39.593 14.4562 39.9896 13.7678 39.9896C13.0794 39.9687 12.6622 39.5721 12.5579 38.8834C12.5162 38.6538 12.5371 38.4242 12.5371 38.1738C12.5371 31.4323 12.5371 24.6908 12.5371 17.9494C12.5371 16.1544 13.2255 15.3196 15.0403 14.9439C15.0403 14.3804 15.0403 13.7751 15.0403 13.1907C15.0403 11.1453 15.5618 10.4566 17.5436 9.89303C17.5436 9.30863 17.5436 8.70336 17.5436 8.11897C17.5436 6.13618 18.1068 5.42656 20.0468 4.90477C20.0468 4.17428 20.0468 3.42291 20.0468 2.67154C20.0677 1.06444 21.0898 0 22.6752 0C34.2527 0 45.8302 0 57.4078 0C58.9723 0 59.9945 1.04357 60.0153 2.58805C60.0362 3.36029 60.0153 4.1534 60.0153 4.90477C61.9345 5.38482 62.5186 6.13619 62.5186 8.03548C62.5186 8.66162 62.5186 9.28776 62.5186 9.89303C64.4586 10.4148 65.0218 11.1244 65.0218 13.1072C65.0218 13.7125 65.0218 14.2969 65.0218 14.8813C67.0035 15.424 67.5251 16.1127 67.5251 18.179C67.5251 24.8161 67.5251 31.4532 67.5251 38.0903C67.5251 38.3199 67.5459 38.5703 67.5042 38.7999C67.4416 39.4887 66.9201 39.9687 66.2734 39.9687C65.6268 39.9687 65.1052 39.4887 65.0218 38.8208C65.0009 38.5912 65.0009 38.3616 65.0009 38.1111C65.0009 31.5784 65.0009 25.0457 65.0009 18.5129C65.0009 18.1998 65.0009 17.8868 65.0009 17.532C48.3544 17.5528 31.7495 17.5528 15.0403 17.5528ZM17.5644 14.9439C32.5839 14.9439 47.5199 14.9439 62.456 14.9439C62.456 14.1091 62.456 13.3159 62.456 12.5437C47.4574 12.5437 32.5422 12.5437 17.5644 12.5437C17.5644 13.3368 17.5644 14.1091 17.5644 14.9439ZM20.0677 9.93478C33.4183 9.93478 46.7064 9.93478 59.9736 9.93478C59.9736 9.09992 59.9736 8.32768 59.9736 7.53457C46.6647 7.53457 33.3766 7.53457 20.0677 7.53457C20.0677 8.34855 20.0677 9.1208 20.0677 9.93478ZM22.5709 4.94652C34.2319 4.94652 45.8302 4.94652 57.4703 4.94652C57.4703 4.11166 57.4703 3.31855 57.4703 2.54631C45.8094 2.54631 34.1902 2.54631 22.5709 2.54631C22.5709 3.38116 22.5709 4.1534 22.5709 4.94652Z" fill="#00043A"/>
<path d="M30.1016 32.4967C33.3349 32.4967 36.5474 32.4967 39.7808 32.4967C40.6778 32.4967 41.2202 32.935 41.2619 33.6655C41.3036 34.396 40.7612 34.9595 39.9477 34.9804C39.0089 35.0013 38.0702 34.9804 37.1315 34.9804C31.5618 34.9804 25.9921 34.9804 20.4223 34.9595C20.026 34.9595 19.5045 34.8969 19.275 34.6465C19.0038 34.3334 18.837 33.7699 18.8787 33.3524C18.9621 32.7472 19.4836 32.4758 20.1094 32.4758C22.1955 32.4758 24.2815 32.4758 26.3467 32.4758C27.6192 32.4967 28.8499 32.4967 30.1016 32.4967Z" fill="#00043A"/>
<path d="M35.108 22.4991C37.9242 22.4991 40.7403 22.4991 43.5356 22.4991C44.4326 22.4991 44.9541 22.9374 45.0167 23.6679C45.0584 24.4193 44.4952 24.9828 43.6191 24.9828C41.8251 25.0037 40.0311 24.9828 38.2371 24.9828C34.3779 24.9828 30.5396 24.9828 26.6804 24.962C26.2841 24.962 25.7626 24.8994 25.5331 24.6489C25.2619 24.3358 25.0742 23.7723 25.1368 23.3549C25.2411 22.7287 25.8043 22.4783 26.4301 22.4783C28.9125 22.4783 31.374 22.4783 33.8564 22.4783C34.2736 22.4991 34.6908 22.4991 35.108 22.4991Z" fill="#00043A"/>
<path d="M52.6099 37.5059C54.988 37.5059 57.3452 37.5059 59.7233 37.5059C60.7037 37.5059 61.2878 37.965 61.2878 38.7581C61.2878 39.5304 60.7037 40.0104 59.7233 40.0104C54.9254 40.0104 50.1484 40.0104 45.3505 40.0104C44.37 40.0104 43.7859 39.5304 43.7859 38.7581C43.7859 37.9859 44.3492 37.5059 45.3505 37.5059C47.7494 37.485 50.1901 37.5059 52.6099 37.5059Z" fill="#00043A"/>
<path d="M25.7417 37.5059C27.4939 37.5059 29.2254 37.5059 30.9776 37.5059C31.9581 37.5059 32.5422 37.965 32.5422 38.7581C32.5422 39.5304 31.9581 40.0104 30.9776 40.0104C27.4314 40.0104 23.906 40.0104 20.3597 40.0104C19.3793 40.0104 18.7952 39.5513 18.7952 38.7581C18.7952 37.9859 19.3584 37.5059 20.3597 37.5059C22.1328 37.485 23.9477 37.5059 25.7417 37.5059Z" fill="#00043A"/>
<path d="M31.2071 29.9921C29.6426 29.9921 28.0781 29.9921 26.5136 29.9921C25.5957 29.9921 25.0325 29.5121 25.0325 28.7398C25.0325 27.9885 25.5957 27.4875 26.5136 27.4875C29.6843 27.4875 32.8551 27.4875 36.0468 27.4875C36.9646 27.4875 37.5278 27.9676 37.5278 28.7398C37.5278 29.4912 36.9646 29.9921 36.0468 29.9921C34.4196 29.9921 32.8134 29.9921 31.2071 29.9921Z" fill="#00043A"/>
<path d="M56.8237 35.0012C55.8641 35.0012 54.9045 35.022 53.9449 35.0012C53.0897 34.9803 52.5473 34.5003 52.5473 33.7489C52.5473 33.0184 53.0897 32.5175 53.9449 32.4966C55.9267 32.4757 57.9084 32.4757 59.8693 32.4966C60.7246 32.4966 61.2669 32.9975 61.2669 33.7489C61.2669 34.4794 60.7246 34.9803 59.8693 35.0012C58.8471 35.0012 57.825 35.0012 56.8237 35.0012Z" fill="#00043A"/>
<path d="M20.7143 22.4995C20.9438 22.4995 21.1941 22.4578 21.4236 22.4995C22.0911 22.6247 22.4875 23.0213 22.5292 23.71C22.5709 24.3571 22.0702 24.8997 21.3819 24.9623C20.9229 25.0041 20.4431 25.0041 19.9842 24.9623C19.2958 24.8997 18.816 24.3988 18.7952 23.7518C18.7952 23.063 19.275 22.5413 20.0259 22.4995C20.2554 22.4786 20.4849 22.4995 20.7143 22.4995Z" fill="#00043A"/>
<path d="M20.6935 27.4875C20.8395 27.4875 21.0064 27.4875 21.1524 27.4875C21.9869 27.5293 22.5501 28.0302 22.5292 28.7607C22.5084 29.4703 21.9869 29.9504 21.1733 29.9712C20.8395 29.9921 20.5058 29.9921 20.1511 29.9712C19.3167 29.9504 18.7535 29.4286 18.7744 28.6981C18.7952 27.9885 19.3167 27.5084 20.1303 27.4875C20.318 27.4875 20.5058 27.4875 20.6935 27.4875Z" fill="#00043A"/>
<path d="M39.9476 67.498C35.8172 67.498 31.666 67.5188 27.5357 67.498C25.7 67.498 24.2397 66.2665 23.8642 64.4925C23.5096 62.8645 24.344 61.1322 25.9086 60.4226C26.4301 60.1721 27.0559 60.0469 27.64 60.026C35.9215 60.0051 44.1823 60.0051 52.4638 60.0051C54.6124 60.0051 56.2813 61.6331 56.2813 63.7202C56.3021 65.8282 54.6333 67.498 52.443 67.498C48.2709 67.498 44.0988 67.498 39.9476 67.498ZM40.0519 62.4888C36.0676 62.4888 32.0832 62.4888 28.0989 62.4888C27.8694 62.4888 27.6191 62.4679 27.3896 62.5097C26.7221 62.6349 26.3049 63.0315 26.284 63.7202C26.284 64.409 26.6804 64.8264 27.3479 64.9725C27.5565 65.0143 27.7651 64.9934 27.9737 64.9934C35.9841 64.9934 44.0154 64.9934 52.0258 64.9934C52.2552 64.9934 52.5056 65.0143 52.735 64.9725C53.3608 64.8264 53.7572 64.4299 53.7572 63.762C53.7572 63.0732 53.3608 62.6558 52.6933 62.5097C52.4638 62.4679 52.2344 62.4888 51.984 62.4888C47.9997 62.4888 44.0362 62.4888 40.0519 62.4888Z" fill="#00043A"/>
<path d="M66.2317 49.9869C65.8145 49.9869 65.3973 50.0078 64.9801 49.9869C64.2499 49.9452 63.7493 49.4025 63.7702 48.7138C63.791 48.0668 64.2708 47.545 64.9592 47.5032C65.8145 47.4615 66.6698 47.4615 67.525 47.5032C68.2551 47.5241 68.7558 48.0876 68.7349 48.7764C68.7141 49.4234 68.2343 49.9452 67.5459 49.9869C67.1287 50.0078 66.6906 49.9869 66.2317 49.9869Z" fill="#00043A"/>
</svg>
