<svg width="80" height="80" viewBox="0 0 80 80" fill="none" xmlns="http://www.w3.org/2000/svg">
<path d="M20.6295 79.9583C20.5035 79.8331 20.3145 79.7288 20.2725 79.5828C20.1675 79.1865 19.9575 78.7068 20.0835 78.3522C20.1885 78.0393 20.6505 77.8099 21.0076 77.643C21.2386 77.5387 21.5746 77.6222 21.8686 77.6222C38.061 77.6222 54.2533 77.6222 70.4457 77.6222C73.4699 77.6222 75.0451 76.0578 75.0451 73.0543C75.0451 65.0656 75.0451 57.077 75.0451 49.0883C75.0451 48.838 75.0451 48.5669 75.0451 48.1914C70.0677 51.8833 64.7542 52.7176 59.2728 49.8809C53.7703 47.0234 51.3971 42.226 51.6071 36.052C35.8978 36.052 20.2305 36.052 4.45819 36.052C4.45819 36.3649 4.45819 36.6361 4.45819 36.9281C4.45819 49.0258 4.45819 61.1234 4.45819 73.2211C4.45819 75.9952 6.11733 77.6222 8.91057 77.643C10.9897 77.643 13.0479 77.643 15.1271 77.643C15.7781 77.643 16.4082 77.6848 16.7022 78.3939C16.9752 79.1031 16.5762 79.562 16.0932 80C13.2579 80 10.4227 80 7.60846 80C7.54545 79.9583 7.48245 79.9166 7.39844 79.8957C3.95415 79.0614 2.106 76.7461 2.106 73.2211C2.106 61.04 2.085 48.8589 2.127 36.6778C2.127 35.4889 2.169 34.3 1.97999 33.111C1.81197 32.0056 1.81197 30.8792 1.72797 29.7738C1.18192 22.5569 0.593872 15.3608 0.0688281 8.14392C-0.015179 7.08016 -0.0571821 5.99554 0.152835 4.97349C0.80389 1.8865 3.3661 0.00927026 6.64238 0.00927026C27.7911 0.00927026 48.9399 0.00927026 70.0887 0.00927026C71.1598 0.00927026 72.2308 -0.0115878 73.3019 0.00927026C76.9982 0.0927026 79.8125 3.26313 79.5185 6.9133C78.9514 14.2971 78.3844 21.7017 77.8593 29.0854C77.8173 29.5443 77.9643 30.0658 78.1743 30.4621C80.7156 35.3429 80.6105 40.1402 77.8173 44.875C77.5653 45.2922 77.3973 45.8345 77.3973 46.3142C77.3763 55.3249 77.3763 64.3147 77.3763 73.3254C77.3763 76.6627 75.4231 79.0614 72.1678 79.8123C72.0628 79.8331 71.9788 79.8957 71.8738 79.9374C54.7994 79.9583 37.725 79.9583 20.6295 79.9583ZM75.6121 27.1456C76.1162 20.4085 76.5992 13.859 77.1032 7.28874C77.3553 4.05574 75.7591 2.32452 72.5039 2.32452C59.3568 2.32452 46.1887 2.32452 33.0416 2.32452C24.1788 2.32452 15.3371 2.32452 6.47436 2.32452C3.87015 2.32452 2.106 4.24346 2.31602 6.80901C2.37902 7.64333 2.44203 8.47765 2.50503 9.29112C3.09308 17.1546 3.70213 25.0181 4.26918 32.8607C4.31118 33.4448 4.5212 33.5908 5.08825 33.5908C7.18842 33.5699 9.2886 33.5699 11.3678 33.5699C24.5779 33.5699 37.788 33.5699 50.9771 33.5908C51.7541 33.5908 52.0902 33.4031 52.4262 32.6313C53.0562 31.1712 53.9173 29.7946 54.7784 28.4388C55.1774 27.8131 55.8915 27.7714 56.4375 28.1677C56.9626 28.564 57.0466 29.1897 56.6475 29.8363C56.5425 29.9823 56.4375 30.1283 56.3325 30.2743C53.4343 34.3834 53.0142 38.7427 55.5135 43.1021C58.0337 47.4823 62.003 49.4846 67.0854 49.0049C72.6089 48.4834 77.1243 43.9155 77.5443 38.5967C78.0273 32.673 74.52 27.5628 68.9546 26.0193C66.2033 25.2684 63.5151 25.477 60.9109 26.6242C60.0498 26.9996 59.4618 26.8953 59.1047 26.3322C58.6847 25.6647 58.9787 24.9138 59.8818 24.5384C65.1323 22.3274 70.0467 22.9114 74.625 26.3113C74.9191 26.5616 75.2131 26.8119 75.6121 27.1456Z" fill="#00043A"/>
<path d="M12.5019 51.7373C12.5019 51.3619 12.5019 51.0699 12.5019 50.7987C12.5019 47.7534 12.5019 44.7082 12.5019 41.6629C12.5019 39.7648 13.447 38.8262 15.3371 38.8262C20.3145 38.8262 25.292 38.8262 30.2694 38.8262C32.1595 38.8262 33.0626 39.7439 33.0836 41.6003C33.0836 44.6664 33.0836 47.7326 33.0836 50.8196C33.0836 51.0907 33.0836 51.3827 33.0836 51.7582C33.9447 51.7582 34.7217 51.7582 35.5198 51.7582C37.305 51.779 38.292 52.7385 38.313 54.5114C38.334 56.9101 38.334 59.3088 38.313 61.6866C38.292 63.4596 37.326 64.4607 35.5408 64.4607C27.0561 64.4607 18.5504 64.4607 10.0657 64.4607C8.30154 64.4607 7.29346 63.4387 7.29346 61.6866C7.29346 59.2879 7.29346 56.8893 7.29346 54.5114C7.29346 52.8011 8.32254 51.7999 10.0237 51.7582C10.8008 51.7165 11.5778 51.7373 12.5019 51.7373ZM19.3065 52.7594C17.2273 50.0061 17.2483 47.2737 19.3695 45.3339C21.2596 43.5818 24.2419 43.5401 26.174 45.2296C27.1401 46.0848 27.7072 47.1277 27.8542 48.4C28.0432 50.0687 27.4971 51.5079 26.279 52.7385C27.6862 53.7188 28.6102 54.9703 29.0093 56.5764C29.0513 56.7015 29.2403 56.8684 29.3873 56.8893C29.8073 56.931 30.2484 56.9101 30.6684 56.9101C30.6684 51.5913 30.6684 46.3977 30.6684 41.2249C30.5004 41.204 30.3954 41.1831 30.2904 41.1831C25.355 41.1831 20.4406 41.1831 15.5051 41.1623C14.8961 41.1623 14.8331 41.4334 14.8331 41.9132C14.8541 46.6688 14.8331 51.4453 14.8331 56.2009C14.8331 56.4304 14.8751 56.639 14.8961 56.931C15.2951 56.931 15.6522 56.9727 15.9672 56.9101C16.1772 56.8684 16.5132 56.7224 16.5552 56.5764C17.0383 54.9703 17.9623 53.7188 19.3065 52.7594ZM33.1046 54.0734C33.1046 54.9703 33.1046 55.7212 33.1046 56.4721C33.0836 58.3285 32.1805 59.2462 30.3114 59.2462C25.313 59.2462 20.3145 59.2462 15.2951 59.2462C13.447 59.2462 12.5229 58.2868 12.5019 56.4304C12.5019 55.6586 12.5019 54.8869 12.5019 54.0526C11.7038 54.0526 11.0318 54.0734 10.3597 54.0526C9.81367 54.0109 9.64565 54.2194 9.64565 54.7617C9.66666 56.8893 9.68766 59.0377 9.64565 61.1652C9.62465 61.9369 9.87667 62.1038 10.6117 62.1038C18.7604 62.0829 26.9091 62.0829 35.0368 62.0829C35.1628 62.0829 35.3308 62.1246 35.4148 62.0621C35.6038 61.9369 35.9188 61.7492 35.9398 61.5823C35.9818 59.2254 35.9608 56.8476 35.9398 54.4906C35.9398 54.3446 35.6878 54.0734 35.5408 54.0734C34.7637 54.0526 33.9867 54.0734 33.1046 54.0734ZM22.8138 51.7165C24.3259 51.7165 25.502 50.5484 25.523 49.0675C25.544 47.5448 24.3469 46.3351 22.8138 46.3559C21.3016 46.3559 20.1255 47.524 20.1045 49.0049C20.0835 50.5276 21.2806 51.7165 22.8138 51.7165ZM19.0754 56.8267C21.5746 56.8267 24.0739 56.8267 26.5941 56.8267C25.943 55.0329 24.3049 53.9483 22.5827 54.0943C20.8606 54.2194 19.3905 55.3458 19.0754 56.8267Z" fill="#00043A"/>
<path d="M56.7106 59.4963C60.4909 59.4963 64.2502 59.4963 68.0305 59.4963C70.6347 59.4963 72.1888 61.0398 72.1888 63.6262C72.1888 65.9832 72.1888 68.361 72.1888 70.718C72.1888 73.2001 70.6137 74.7853 68.1145 74.7853C60.4909 74.7853 52.8672 74.7853 45.2436 74.7853C42.7654 74.7853 41.1903 73.2418 41.1693 70.8223C41.1483 68.3819 41.1483 65.9415 41.1693 63.4802C41.1903 61.0398 42.7444 59.4963 45.2226 59.4963C49.0659 59.4963 52.8882 59.4963 56.7106 59.4963ZM56.7106 72.4492C60.4489 72.4492 64.2082 72.4492 67.9465 72.4492C69.3326 72.4492 69.8156 71.9486 69.8156 70.5511C69.8156 68.2567 69.8156 65.9832 69.8156 63.6888C69.8156 62.333 69.3116 61.8533 67.9675 61.8324C60.4279 61.8324 52.8882 61.8324 45.3276 61.8324C44.0045 61.8324 43.5215 62.3122 43.5005 63.6054C43.5005 65.9415 43.5005 68.2776 43.5005 70.6346C43.5005 71.9903 43.9835 72.4492 45.3696 72.4492C49.1709 72.4492 52.9512 72.4492 56.7106 72.4492Z" fill="#00043A"/>
<path d="M13.6779 67.2766C14.959 67.2766 16.2401 67.2557 17.5213 67.2766C19.0124 67.2975 19.9785 68.2152 20.0625 69.6961C20.1045 70.5722 20.1045 71.4691 20.0625 72.3451C19.9995 73.8052 18.9914 74.7647 17.5423 74.7855C14.98 74.8064 12.3968 74.8064 9.83461 74.7855C8.34349 74.7647 7.3354 73.7635 7.2934 72.2825C7.2724 71.4482 7.2724 70.6139 7.2934 69.7796C7.3354 68.2778 8.34349 67.2975 9.83461 67.2766C11.1157 67.2557 12.3968 67.2766 13.6779 67.2766ZM17.6683 69.6544C14.98 69.6544 12.3548 69.6544 9.6876 69.6544C9.6876 70.593 9.6876 71.4691 9.6876 72.3868C12.3758 72.3868 15.001 72.3868 17.6683 72.3868C17.6683 71.4899 17.6683 70.6139 17.6683 69.6544Z" fill="#00043A"/>
<path d="M41.1903 42.5597C41.1903 42.0591 41.1693 41.5794 41.1903 41.0788C41.2743 39.869 42.1773 38.9096 43.3954 38.847C44.4035 38.7844 45.4326 38.7844 46.4617 38.847C47.7008 38.9096 48.6459 39.8482 48.7299 41.1205C48.7929 42.08 48.7929 43.0394 48.7299 43.9989C48.6669 45.3547 47.6588 46.2933 46.2727 46.335C45.4326 46.3767 44.5925 46.3559 43.7525 46.335C42.1563 46.2933 41.1903 45.3338 41.1693 43.7278C41.1693 43.3315 41.1903 42.9352 41.1903 42.5597ZM46.3147 43.9363C46.3147 42.9977 46.3147 42.1217 46.3147 41.2039C45.3696 41.2039 44.4875 41.2039 43.6055 41.2039C43.6055 42.1426 43.6055 43.0186 43.6055 43.9363C44.5505 43.9363 45.4326 43.9363 46.3147 43.9363Z" fill="#00043A"/>
<path d="M39.7411 12.6699C29.6603 12.6699 19.5584 12.6699 9.47757 12.6699C9.26756 12.6699 9.05754 12.6699 8.84752 12.6699C7.86044 12.6699 7.31439 12.2319 7.31439 11.5018C7.31439 10.7718 7.88144 10.3338 8.86852 10.3338C29.4712 10.3338 50.074 10.3338 70.6767 10.3338C70.9287 10.3338 71.2857 10.3129 71.4327 10.4589C71.7478 10.7927 72.1258 11.189 72.1678 11.6061C72.2308 12.1484 71.8108 12.5656 71.2017 12.649C70.9287 12.6908 70.6347 12.6699 70.3406 12.6699C60.1338 12.6699 49.9269 12.6699 39.7411 12.6699Z" fill="#00043A"/>
<path d="M39.7411 7.51808C31.2984 7.51808 22.8557 7.51808 14.434 7.51808C14.182 7.51808 13.909 7.53894 13.6569 7.51808C12.9849 7.4555 12.5859 7.0592 12.5649 6.4126C12.5439 5.74514 12.9219 5.34884 13.5729 5.20283C13.804 5.16111 14.035 5.18197 14.287 5.18197C31.2984 5.18197 48.3098 5.18197 65.3213 5.18197C65.5733 5.18197 65.8463 5.16111 66.0983 5.22369C66.7074 5.39055 67.0434 5.80771 67.0014 6.4126C66.9594 7.01748 66.6024 7.41379 65.9513 7.49722C65.6993 7.53893 65.4263 7.51808 65.1743 7.51808C56.6685 7.51808 48.2048 7.51808 39.7411 7.51808Z" fill="#00043A"/>
<path d="M64.4812 34.9048C65.9094 33.6533 67.2745 32.4644 68.6606 31.2755C70.0677 30.0449 71.4538 30.1283 72.6929 31.5258C73.176 32.0681 73.68 32.6104 74.1421 33.1527C75.0871 34.2791 75.0241 35.6766 73.932 36.636C71.2228 39.0556 68.4926 41.4334 65.7624 43.8112C64.9223 44.5412 64.0612 44.5412 63.2001 43.8321C61.373 42.3094 59.5458 40.7868 57.7397 39.2433C56.5426 38.2212 56.4586 36.7612 57.5087 35.5931C58.0757 34.9465 58.6638 34.2999 59.2728 33.695C60.2599 32.7147 61.478 32.6313 62.6121 33.4239C63.2211 33.9036 63.8092 34.3834 64.4812 34.9048ZM70.5718 32.7147C68.9756 34.1122 67.4635 35.4263 65.9514 36.7403C64.9433 37.6164 64.1242 37.6372 63.0741 36.8238C62.4021 36.3023 61.73 35.7808 61.058 35.2385C60.3649 35.9894 59.7559 36.636 59.1048 37.3661C60.9109 38.8887 62.6541 40.3696 64.4602 41.8714C67.1275 39.5353 69.7737 37.1992 72.4619 34.8214C71.8109 34.0913 71.2228 33.4239 70.5718 32.7147Z" fill="#00043A"/>
<path d="M56.7316 66.0041C57.1936 66.0041 57.6767 65.9624 58.1387 66.025C58.7688 66.1084 59.1258 66.5047 59.1258 67.1304C59.1258 67.7979 58.7688 68.2359 58.0967 68.2776C57.1306 68.3193 56.1645 68.3193 55.1985 68.2776C54.5684 68.2359 54.2114 67.7979 54.2114 67.1722C54.1904 66.5464 54.5264 66.1084 55.1565 66.025C55.6815 65.9624 56.2065 66.0041 56.7316 66.0041Z" fill="#00043A"/>
<path d="M64.5442 68.2776C64.0401 68.2776 63.5571 68.3193 63.053 68.2776C62.402 68.2151 62.0449 67.7979 62.0239 67.193C62.0029 66.5464 62.36 66.0667 63.032 66.025C63.9981 65.9624 64.9642 65.9624 65.9303 66.025C66.6023 66.0667 66.9804 66.5464 66.9594 67.193C66.9384 67.8396 66.5603 68.2568 65.8673 68.2985C65.4262 68.3193 64.9852 68.2985 64.5442 68.2776Z" fill="#00043A"/>
<path d="M48.7929 68.2777C48.3308 68.2777 47.8478 68.3195 47.3858 68.2569C46.7557 68.1734 46.4197 67.7771 46.4197 67.1305C46.4197 66.5048 46.7557 66.0459 47.3858 66.0042C48.3728 65.9416 49.3809 65.9416 50.368 66.0042C50.9981 66.0459 51.3341 66.4839 51.3341 67.1097C51.3341 67.7771 50.9771 68.1943 50.305 68.2569C49.78 68.3195 49.2759 68.2777 48.7929 68.2777Z" fill="#00043A"/>
</svg>
