<svg width="163" height="163" viewBox="0 0 163 163" fill="none" xmlns="http://www.w3.org/2000/svg">
<path d="M0.0850329 61.7667C0.510204 59.896 0.807824 58.0252 1.36055 56.197C2.46599 52.3705 4.42178 48.9691 7.22791 46.163C20.2381 33.1102 33.2059 20.1 46.2586 7.13225C51.0631 2.37033 57.0155 0.074405 63.7757 0.0318878C74.0648 -0.0106293 84.354 -0.0106293 94.6431 0.0318878C106.505 0.074405 115.859 9.34314 115.902 21.2054C115.944 37.8721 115.902 54.4963 115.902 71.163C115.902 71.8008 115.902 72.396 115.902 72.9913C122.407 74.3943 125.936 77.6681 126.914 83.2804C127.041 84.0882 127.084 84.9811 127.084 85.8314C127.084 90.8484 127.084 95.908 127.084 100.925C127.084 102.966 127.934 103.859 129.932 103.901C132.696 103.944 135.46 103.816 138.181 103.986C139.031 104.029 140.051 104.752 140.519 105.474C140.859 105.985 140.562 107.175 140.136 107.77C139.796 108.28 138.903 108.621 138.223 108.621C135.162 108.706 132.058 108.748 128.997 108.578C125.128 108.365 122.322 105.347 122.279 101.478C122.237 95.9505 122.322 90.4658 122.237 84.9386C122.194 81.7498 119.983 78.9437 116.965 78.1358C114.031 77.328 110.757 78.4335 109.226 81.112C108.504 82.3876 108.079 84.0032 108.036 85.4488C107.866 88.7651 107.951 92.124 107.993 95.4828C107.993 96.7583 107.568 97.6937 106.548 98.459C103.869 100.457 102.594 103.221 102.594 106.58C102.594 119.08 102.551 131.622 102.594 144.122C102.636 152.158 108.716 158.153 116.752 158.196C125.766 158.238 134.779 158.196 143.793 158.196C143.963 158.196 144.09 158.196 144.261 158.196C146.429 158.111 147.96 156.835 148.13 154.922C148.3 152.838 147.067 151.35 144.856 150.968C142.943 150.628 142.177 149.862 142.262 148.417C142.347 146.929 143.368 146.163 145.324 146.163C146.259 146.163 147.237 146.206 148.172 146.121C150.596 145.951 152.466 144.08 152.551 141.699C152.636 139.275 151.021 137.32 148.597 136.894C148.215 136.852 147.832 136.895 147.492 136.767C146.259 136.427 145.536 135.619 145.579 134.343C145.621 133.11 146.386 132.26 147.662 132.09C148.597 131.963 149.575 132.048 150.511 132.048C153.189 131.963 155.273 130.049 155.358 127.541C155.443 125.075 153.699 123.161 150.978 122.779C149.193 122.524 148.257 121.631 148.342 120.228C148.427 118.782 149.405 118.059 151.233 118.017C152.339 117.974 153.487 118.017 154.55 117.804C156.718 117.337 158.249 115.253 158.121 113.17C157.994 110.874 156.335 109.003 154.04 108.791C152.211 108.621 150.341 108.706 148.47 108.663C146.599 108.621 145.494 107.728 145.494 106.282C145.494 104.837 146.599 103.901 148.47 103.901C150.213 103.859 151.956 103.816 153.699 103.944C157.951 104.156 161.267 106.707 162.458 110.619C163.648 114.488 162.288 118.442 158.886 121.036C158.674 121.206 158.461 121.333 158.121 121.588C159.652 123.927 160.46 126.435 159.907 129.241C159.312 132.048 157.739 134.131 155.358 135.619C158.886 141.061 157.526 146.971 151.829 150.202C152.126 151.223 152.551 152.201 152.721 153.221C153.359 157.388 151.148 161.044 147.194 162.49C146.812 162.617 146.429 162.83 146.089 163C135.374 163 124.66 163 113.946 163C113.606 162.872 113.266 162.745 112.925 162.66C108.461 161.724 104.762 159.514 101.871 155.985C101.531 155.602 101.233 155.219 100.851 154.752C100.553 155.092 100.383 155.347 100.17 155.602C97.0666 159.344 92.4322 160.662 88.0104 159.131C83.6312 157.6 80.825 153.604 80.7825 148.757C80.74 145.951 80.7825 143.145 80.7825 140.338C80.7825 138.213 80.7825 136.129 80.7825 133.833C79.9322 133.833 79.2519 133.833 78.5716 133.833C59.1838 133.833 39.7535 133.961 20.3657 133.748C11.7772 133.621 5.56974 129.114 1.95579 121.333C0.977893 119.25 0.637757 116.911 0 114.701C0.0850342 97.0134 0.0850329 79.4113 0.0850329 61.7667ZM97.7894 105.857C98.172 101.605 99.7452 98.0764 102.849 95.2702C103.147 94.9726 103.189 94.3349 103.232 93.8246C103.274 90.891 103.189 87.9998 103.274 85.0661C103.402 80.2617 105.57 76.6477 109.864 74.4368C110.885 73.9266 111.182 73.3739 111.182 72.2685C111.14 55.4742 111.182 38.6374 111.14 21.8432C111.14 11.8091 104.124 4.7938 94.1329 4.7938C85.6295 4.7938 77.1686 4.7938 68.6651 4.7938C61.4372 4.7938 56.7178 9.51321 56.6753 16.7411C56.6753 22.9486 56.6753 29.1561 56.6753 35.3636C56.6753 46.6306 47.7042 58.0252 31.7603 56.5371C30.3147 56.4096 29.5069 55.4317 29.5494 54.1137C29.5919 52.7956 30.4848 51.9028 31.9304 51.8602C32.9933 51.8177 34.0562 51.8603 35.1191 51.8177C45.0681 51.6477 51.9134 44.6749 51.9559 34.7259C51.9559 30.1765 51.9559 25.5847 51.9559 21.0353C51.9559 16.3585 51.5733 11.5965 54.2944 7.2598C52.211 8.57783 50.2977 9.93838 48.6396 11.554C38.3504 21.7581 28.1463 32.0048 17.8997 42.2514C15.4337 44.7174 12.8827 47.1409 10.5017 49.7344C9.26873 51.0524 8.33335 52.583 7.27043 54.0286C7.39798 54.1137 7.48301 54.1987 7.61056 54.2837C10.1191 52.7956 12.7977 51.8177 15.7313 51.8177C17.8572 51.8177 19.983 51.7752 22.1089 51.8177C23.8096 51.8603 24.745 52.7106 24.7875 54.1137C24.83 55.5592 23.8521 56.5371 22.1089 56.5797C20.4507 56.6222 18.8351 56.5797 17.1769 56.5797C9.65138 56.5797 5.01702 61.2565 5.01702 68.8246C5.01702 83.1528 5.01702 97.4386 5.01702 111.767C5.01702 122.013 11.9473 128.986 22.1514 128.986C41.1566 128.986 60.1192 128.986 79.1244 128.986C79.6771 128.986 80.2723 128.986 80.9951 128.986C80.9951 128.221 80.9951 127.626 80.9951 127.073C80.9951 122.864 80.9526 118.697 81.0376 114.488C81.1652 109.556 84.7366 105.389 89.5836 104.326C92.3897 103.731 95.0683 104.411 97.7894 105.857ZM97.7894 132.133C97.7894 132.133 97.8319 132.133 97.7894 132.133C97.7894 126.563 97.7894 120.993 97.7894 115.423C97.7894 111.639 95.1958 108.876 91.7094 108.918C88.1805 108.918 85.6295 111.639 85.6295 115.466C85.6295 126.478 85.6295 137.532 85.6295 148.544C85.6295 149.224 85.672 149.947 85.8421 150.585C86.6499 153.391 89.456 155.304 92.2621 154.964C95.4084 154.582 97.7468 152.158 97.7894 149.012C97.8319 143.357 97.7894 137.745 97.7894 132.133Z" fill="#FDFDFF"/>
<path d="M53.529 78.8583C54.8045 76.6049 55.9525 74.6066 57.1005 72.5658C60.5018 66.5709 63.8182 60.5335 67.3046 54.6236C69.9406 50.1168 74.0648 47.9059 79.2519 48.246C84.524 48.5861 88.308 51.3498 90.3488 56.2392C92.007 60.2783 91.4968 64.1899 89.3284 67.9739C84.524 76.4349 79.7196 84.9383 74.9577 93.4417C72.2366 98.2461 69.558 103.051 66.8369 107.812C61.7773 116.741 50.8504 117.506 44.6004 109.386C38.9457 102.115 33.2484 94.8448 27.6786 87.5318C21.5136 79.4961 25.8079 68.3566 35.7144 66.7409C40.7314 65.8906 44.8555 67.7614 48.0443 71.7155C49.7875 74.0114 51.5732 76.3073 53.529 78.8583ZM55.6549 110.193C58.5886 110.108 60.9695 108.493 62.5852 105.644C67.092 97.6509 71.5988 89.7002 76.1056 81.707C79.2094 76.1798 82.3981 70.6525 85.4594 65.0828C88.308 59.8107 85.2468 53.8157 79.3369 52.9654C76.1056 52.4977 72.9593 54.1984 71.0886 57.5147C66.1991 66.1882 61.3097 74.8617 56.4202 83.5352C54.9746 86.1288 53.2314 86.2563 51.4032 83.9179C48.9797 80.7716 46.5987 77.5828 44.0902 74.5216C41.1565 70.8651 36.1395 70.3124 32.6106 73.1185C29.1242 75.8821 28.4864 80.8141 31.2926 84.4706C37.0749 92.0386 42.9423 99.5642 48.8096 107.09C50.4253 109.131 52.6362 110.193 55.6549 110.193Z" fill="#FDFDFF"/>
</svg>
